<?xml version="1.0" encoding="UTF-8"?> <svg xmlns="http://www.w3.org/2000/svg" xmlns:xlink="http://www.w3.org/1999/xlink" version="1.1" id="cd_vinyl_svg" viewBox="0 0 95 85" xml:space="preserve"> <style type="text/css">.cd_vinyl_svg-1 { fill:#EBEBEB; }</style> <g><path class="cd_vinyl_svg-1" d="M26.3,23.6c0-3.1-3-4.2-4.9-4.8v-5.1c1,0.2,1.9,0.5,2.7,1.1c0.6,0.4,1.3,0.3,1.7-0.3s0.3-1.3-0.3-1.7 c-1.2-0.9-2.7-1.4-4.2-1.6v-0.7c0-0.7-0.6-1.2-1.2-1.2s-1.2,0.6-1.2,1.2v0.7c-3,0.5-4.4,2.7-4.4,4.9c0,2.6,2.5,3.9,4.4,4.6v4.9 c-1.1-0.3-2.1-0.8-3-1.5c-0.6-0.4-1.3-0.3-1.7,0.3c-0.4,0.6-0.3,1.3,0.3,1.7c1.3,1,2.9,1.7,4.5,2v1.2c0,0.7,0.6,1.2,1.2,1.2 s1.2-0.6,1.2-1.2v-1.1C23.7,27.8,26.3,26.4,26.3,23.6z M17,16c0-1.2,0.7-2,1.9-2.3v4.2C17.8,17.3,17,16.7,17,16z M21.4,25.6v-4.2 c1.5,0.5,2.4,1.1,2.4,2.2C23.8,24.7,22.5,25.4,21.4,25.6z"></path> <path class="cd_vinyl_svg-1" d="M83.5,40.3c-4-3.7-7.9-7.2-7.9-10.9c0-0.7-0.6-1.2-1.2-1.2s-1.2,0.6-1.2,1.2v2.6v18.6v15.8 c-0.9-1-2-1.8-3.3-2.4c-2.8-1.3-6.1-1.4-9-0.2c-6,2.3-9.1,8.2-7.2,13.6c0.9,2.5,2.7,4.4,5.2,5.6c1.5,0.7,3.1,1,4.7,1 c1.4,0,2.9-0.3,4.3-0.8c4.5-1.7,7.4-5.5,7.7-9.6c0,0,0-0.1,0-0.1v-0.6c0-0.1,0-0.3,0-0.4V52c2.7,0.6,8.7,2.2,11.1,6.3 c1.4,2.4,1.4,5.3,0,8.7c-0.2,0.6,0,1.2,0.5,1.5c0.2,0.1,0.4,0.2,0.6,0.2c0.4,0,0.7-0.2,1-0.4C99.9,55.3,90.8,47,83.5,40.3z M67.1,80.8c-2.4,0.9-4.9,0.8-7.1-0.2c-1.9-0.9-3.3-2.3-3.9-4.2c-1.5-4.1,1-8.6,5.7-10.4c1.1-0.4,2.3-0.6,3.4-0.6 c1.3,0,2.5,0.3,3.7,0.8c1.9,0.9,3.3,2.3,3.9,4.2c0,0,0,0,0,0c0.3,0.7,0.4,1.5,0.4,2.2v0.3C73.2,76.2,70.8,79.4,67.1,80.8z M88.9,57.1c-3.1-5.3-10.4-7.1-13.2-7.6V35.7c1.6,2.2,3.9,4.2,6.2,6.3c6.3,5.8,12.3,11.3,8.5,19.6C90.2,60,89.8,58.5,88.9,57.1z"></path> <path class="cd_vinyl_svg-1" d="M51.2,81.1c-1.3,0.2-2.6,0.3-4,0.3c-6.9,0-13.4-2.7-18.3-7.6c-4.9-4.9-7.6-11.4-7.6-18.3 c0-7.9,3.5-14.9,9.1-19.7c0.8-0.5,1.5-1.1,2.3-1.7c4.1-2.8,9.1-4.5,14.5-4.5c0,0,0,0,0,0c8.3,0,16.1,4,21,10.7 c0.4,0.6,1.2,0.7,1.7,0.3c0.6-0.4,0.7-1.2,0.3-1.7c-5.3-7.4-13.9-11.8-23-11.8c0,0,0,0,0,0c-3.7,0-7.3,0.7-10.5,2 c1.6-2.8,2.5-6,2.5-9.3v0c0-10.5-8.6-19.1-19.1-19.1C9.5,0.7,1,9.3,1,19.8s8.6,19.1,19.1,19.1c1.6,0,3.1-0.2,4.6-0.6 C21,43.1,18.8,49,18.8,55.5c0,7.6,2.9,14.7,8.3,20.1s12.5,8.3,20.1,8.3c0,0,0,0,0,0c1.5,0,2.9-0.1,4.4-0.3c0.7-0.1,1.1-0.7,1-1.4 S51.9,80.9,51.2,81.1z M3.5,19.8c0-9.2,7.4-16.6,16.6-16.6c9.1,0,16.6,7.4,16.6,16.6v0c0,4.9-2.1,9.3-5.5,12.3 c-0.8,0.5-1.5,1.1-2.2,1.7c-2.6,1.6-5.6,2.6-8.9,2.6C10.9,36.4,3.5,29,3.5,19.8z"></path> <path class="cd_vinyl_svg-1" d="M47.1,48.9c-3.6,0-6.5,3-6.5,6.6c0,3.6,2.9,6.6,6.6,6.6s6.6-2.9,6.6-6.6S50.8,48.9,47.1,48.9 C47.2,48.9,47.1,48.9,47.1,48.9z M51.2,55.5c0,2.2-1.8,4.1-4.1,4.1c-2.2,0-4.1-1.8-4.1-4.1c0-2.2,1.8-4.1,4-4.1h0 C49.4,51.4,51.2,53.3,51.2,55.5z"></path> </g></svg> 