<?xml version="1.0" encoding="UTF-8"?> <svg xmlns="http://www.w3.org/2000/svg" xmlns:xlink="http://www.w3.org/1999/xlink" version="1.1" id="digital_dist_svg" viewBox="0 0 88 89" xml:space="preserve"> <style type="text/css">.digital_dist_svg-1 { fill:#EBEBEB; }</style> <g><path class="digital_dist_svg-1" d="M87.4,44.5c0-0.3-0.1-0.7-0.4-0.9l-5.5-5.5c-0.5-0.5-1.3-0.5-1.8,0c-0.5,0.5-0.5,1.3,0,1.8l3.4,3.4H72.2 c-0.7,0-1.2,0.6-1.2,1.2c0,0.7,0.6,1.2,1.2,1.2h10.9l-3.4,3.4c-0.5,0.5-0.5,1.3,0,1.8c0.2,0.2,0.6,0.4,0.9,0.4s0.6-0.1,0.9-0.4 l5.5-5.5C87.3,45.2,87.4,44.9,87.4,44.5C87.4,44.5,87.4,44.5,87.4,44.5C87.4,44.5,87.4,44.5,87.4,44.5z"></path> <path class="digital_dist_svg-1" d="M15.8,43.3H4.9l3.4-3.4c0.5-0.5,0.5-1.3,0-1.8s-1.3-0.5-1.8,0L1,43.6c-0.1,0.1-0.2,0.3-0.3,0.4c-0.1,0.2-0.1,0.3-0.1,0.5 c0,0,0,0,0,0c0,0,0,0,0,0c0,0.2,0,0.3,0.1,0.5c0.1,0.1,0.1,0.3,0.2,0.4c0,0,0,0,0,0l5.5,5.5c0.2,0.2,0.6,0.4,0.9,0.4 s0.6-0.1,0.9-0.4c0.5-0.5,0.5-1.3,0-1.8l-3.4-3.4h10.9c0.7,0,1.2-0.6,1.2-1.2C17,43.8,16.5,43.3,15.8,43.3z"></path> <path class="digital_dist_svg-1" d="M39.4,8.4L42.8,5v10.9c0,0.7,0.6,1.3,1.2,1.3s1.2-0.6,1.2-1.3V5l3.4,3.4c0.2,0.2,0.6,0.4,0.9,0.4s0.6-0.1,0.9-0.4 c0.5-0.5,0.5-1.3,0-1.8l-5.5-5.5c-0.1-0.1-0.3-0.2-0.4-0.3c-0.2-0.1-0.3-0.1-0.5-0.1s-0.3,0-0.5,0.1c-0.2,0.1-0.3,0.2-0.4,0.3 l-5.5,5.5c-0.5,0.5-0.5,1.3,0,1.8S38.9,8.9,39.4,8.4z"></path> <path class="digital_dist_svg-1" d="M48.7,80.7l-3.4,3.4V73.1c0-0.7-0.6-1.2-1.2-1.2s-1.2,0.6-1.2,1.2v10.9l-3.4-3.4c-0.5-0.5-1.3-0.5-1.8,0 c-0.5,0.5-0.5,1.3,0,1.8l5.5,5.5c0.2,0.2,0.6,0.4,0.9,0.4s0.7-0.1,0.9-0.4l5.5-5.5c0.5-0.5,0.5-1.3,0-1.8S49.1,80.2,48.7,80.7z"></path> <path class="digital_dist_svg-1" d="M58.3,36.3v-6.2c0-0.4-0.2-0.7-0.4-0.9s-0.6-0.3-1-0.3l-21.2,3.3c-0.6,0.1-1.1,0.6-1.1,1.2v6.1c0,0,0,0,0,0v12 c-0.2-0.1-0.3-0.2-0.5-0.3c-1.4-0.8-3.1-1-4.7-0.6c-3.4,0.8-5.6,4-4.8,7.2c0.4,1.5,1.4,2.8,2.8,3.6c0.9,0.5,2,0.8,3.1,0.8 c0.5,0,1.1-0.1,1.6-0.2c3.1-0.7,5.1-3.4,4.9-6.2V40.6l18.7-2.9v10.8c-1.4-0.9-3.3-1.3-5.2-0.9c-1.6,0.4-3,1.3-3.9,2.7 c-0.9,1.4-1.2,3-0.9,4.5c0.6,2.6,3.1,4.4,5.9,4.4c0.5,0,1.1-0.1,1.6-0.2c1.6-0.4,3-1.3,3.9-2.7c0.8-1.1,1.1-2.4,1-3.7V36.3z M31.6,59.7c-1,0.2-2.1,0.1-2.9-0.3c-0.8-0.4-1.4-1.2-1.6-2c-0.4-1.8,0.9-3.6,3-4.1c0.3-0.1,0.7-0.1,1-0.1c0.7,0,1.3,0.2,1.9,0.5 c0.8,0.4,1.4,1.2,1.6,2c0,0.2,0.1,0.4,0.1,0.5v0.3C34.5,57.8,33.3,59.2,31.6,59.7z M37.1,34.5l18.7-2.9v3.7l-18.7,2.9V34.5z M52.8,56.6c-2.1,0.5-4.1-0.5-4.5-2.3c-0.2-0.8,0-1.7,0.5-2.5c0.6-0.8,1.4-1.4,2.5-1.6c0.3-0.1,0.7-0.1,1-0.1c1.7,0,3.1,1,3.5,2.5 c0,0.1,0,0.3,0.1,0.4v0.3c0,0,0,0,0,0c0,0.6-0.2,1.2-0.6,1.7C54.7,55.8,53.8,56.3,52.8,56.6z"></path></g></svg> 