<?xml version="1.0" encoding="UTF-8"?> <svg xmlns="http://www.w3.org/2000/svg" viewBox="0 0 275 47"><defs><style> .hearnow_svg-1, .hearnow_svg-2 { fill: #fff; } .hearnow_svg-2 { fill-rule: evenodd; } .hearnow_svg-3 { fill: #c01f43; } </style></defs><title>hearnow</title><g id="Layer_2" data-name="Layer 2"><g id="New_Site_Design" data-name="New Site Design"><g><path class="hearnow_svg-1" d="M196.54,44.55l-18.26-16.4V44h-7V13.29l1-.17,18,16.27V13.7h7V44.42Z"></path><path class="hearnow_svg-1" d="M233.15,28.62a16.3,16.3,0,0,1-1.12,6.1,14.26,14.26,0,0,1-3.15,4.86A14.66,14.66,0,0,1,224,42.81a17.25,17.25,0,0,1-12.54,0,14.11,14.11,0,0,1-4.78-3.23,14.27,14.27,0,0,1-3-4.86,17.33,17.33,0,0,1-1.06-6.1,16.57,16.57,0,0,1,1.12-6.12,14.21,14.21,0,0,1,8-8.12A16.44,16.44,0,0,1,218,13.2a16,16,0,0,1,6.25,1.18,14,14,0,0,1,7.81,8.12A17.19,17.19,0,0,1,233.15,28.62Zm-7.4,0a11.63,11.63,0,0,0-.57-3.73,8.6,8.6,0,0,0-1.61-2.9,7.21,7.21,0,0,0-2.47-1.91,7.78,7.78,0,0,0-6.45,0,7.23,7.23,0,0,0-2.5,1.91,8.77,8.77,0,0,0-1.61,2.9,11.63,11.63,0,0,0-.57,3.73,11.49,11.49,0,0,0,.57,3.68,9,9,0,0,0,1.61,2.92,7.31,7.31,0,0,0,2.5,1.94,7.88,7.88,0,0,0,6.45,0,7.3,7.3,0,0,0,2.47-1.94,8.79,8.79,0,0,0,1.61-2.92A11.49,11.49,0,0,0,225.75,28.62Z"></path><path class="hearnow_svg-1" d="M264.87,44l-.94.08-9.15-17.85-9,17.85-.89-.08L234,13.69h7.93l4.8,15.66,7.77-15.9h.73L263,29.23l4.76-15.54h7.76Z"></path><path class="hearnow_svg-2" d="M61.68,4.05c8,1.35,4.62,7.82,5.53,12.05,2.32-.77,4.67-2.12,7.08-2.23,6.11-.29,10.69,3.55,11.09,9.64.44,6.75.1,13.54.1,20.35-4.89,1.09-7.17-.64-7.23-5.72,0-4,0-7.92-.07-11.87s-2.1-5.88-5.49-5.91c-3.24,0-5.46,2.18-5.53,5.89-.11,5.87,0,11.74,0,17.55-4.53.92-5.71.41-7.89-3.2V4.05Z"></path><path class="hearnow_svg-2" d="M99.16,32.34c1,5.9,8.19,7.45,16,3.5,1.52,3.16,0,6.3-3.82,7.39-5.68,1.62-11.11,1.05-15.57-3.16S90.59,30.6,91.91,25c2.28-9.76,12.55-14.24,20.34-9,3.81,2.58,5.11,6.28,4.49,10.69-.37,2.69-3,4.55-6.82,4.91C106.34,31.93,102.75,32.09,99.16,32.34Zm-.42-5.51c2.71,0,5.25.17,7.74-.07,1.64-.15,3.8-.32,3.75-2.77s-1.64-3.65-3.86-4.06C102.13,19.15,99.42,21.53,98.74,26.83Z"></path><path class="hearnow_svg-2" d="M136.76,25.36c.1-3.39-.86-4.74-4.27-5.14a14.18,14.18,0,0,0-10.71,2.9c-.72-5.29,2.26-8.43,8.27-8.94,8.89-.75,13.66,3.45,13.93,12.36.08,2.73,0,5.46-.08,8.2a8.91,8.91,0,0,1-4.16,7.33c-4.4,3.06-12.74,2.52-16.77-1a8.07,8.07,0,0,1,2.94-13.85C129.27,26.09,133,26,136.76,25.36Zm1.06,5.54c-3.28.17-5.42-.07-7.3.51a4.72,4.72,0,0,0-2.85,3.07c-.15.94,1.28,2.84,2.32,3.1,1.72.43,4.28.57,5.41-.41C136.72,36,136.89,33.55,137.82,30.9Z"></path><path class="hearnow_svg-2" d="M166.3,21c-.88-.14-1.69-.25-2.49-.4-4.59-.82-7,1-7.12,5.84s0,9.62,0,14.43v3c-5.49.75-7.43-.83-7.44-5.81,0-4.5-.08-9,0-13.51.16-6.18,3.9-10.26,9.9-10.8C163.6,13.33,167.54,15.21,166.3,21Z"></path><circle class="hearnow_svg-3" cx="26.9" cy="23.85" r="23.85"></circle><path class="hearnow_svg-1" d="M42.3,23.59A5.25,5.25,0,0,1,45.22,19a19,19,0,0,0-2.14-5.17,5.26,5.26,0,0,1-5.31-1.14,5.27,5.27,0,0,1-1.14-5.31,18.88,18.88,0,0,0-5.19-2.15A5.24,5.24,0,0,1,26.9,8.18a5.24,5.24,0,0,1-4.55-2.91,19.11,19.11,0,0,0-5.18,2.14A5.26,5.26,0,0,1,16,12.73a5.26,5.26,0,0,1-5.31,1.14A18.61,18.61,0,0,0,8.58,19a5.25,5.25,0,0,1,2.93,4.56,5.26,5.26,0,0,1-2.93,4.56,19,19,0,0,0,2.14,5.17A5.26,5.26,0,0,1,16,34.48a5.26,5.26,0,0,1,1.15,5.3,19,19,0,0,0,5.18,2.14A5.23,5.23,0,0,1,26.9,39a5.24,5.24,0,0,1,4.55,2.91,18.61,18.61,0,0,0,5.19-2.14,5,5,0,0,1,6.43-6.43,18.82,18.82,0,0,0,2.15-5.2A5.24,5.24,0,0,1,42.3,23.59ZM26.9,35.49A11.9,11.9,0,1,1,38.8,23.6,11.89,11.89,0,0,1,26.9,35.49Z"></path><path class="hearnow_svg-1" d="M21.85,17.5V29.37a1.33,1.33,0,0,0,.65,1.13,1.31,1.31,0,0,0,1.3,0l10.42-6a1.31,1.31,0,0,0,.66-1.13,1.29,1.29,0,0,0-.66-1.13l-10.42-6a1.34,1.34,0,0,0-.65-.17h0a1.31,1.31,0,0,0-1.31,1.3A.49.49,0,0,0,21.85,17.5Z"></path><path class="hearnow_svg-3" d="M0,40.72a8.23,8.23,0,0,0,8.34-3.49l4,4.89S4,47,0,40.72Z"></path></g></g></g></svg> 