<?xml version="1.0" encoding="UTF-8"?> <svg xmlns="http://www.w3.org/2000/svg" xmlns:xlink="http://www.w3.org/1999/xlink" version="1.1" id="publishing_svg" viewBox="0 0 87 73" xml:space="preserve"> <style type="text/css">.publishing_svg-1 { fill:#EBEBEB; }</style> <g><path class="publishing_svg-1" d="M85.6,16.2c0-8.6-7-15.5-15.5-15.5C61.9,0.7,55.2,7,54.6,15H6.5c-3,0-5.5,2.5-5.5,5.5v46.6 c0,3,2.5,5.5,5.5,5.5h59.3c3,0,5.5-2.5,5.5-5.5V31.7C79.3,31.1,85.6,24.4,85.6,16.2z M65.8,70.1H6.5c-1.6,0-3-1.4-3-3V20.5 c0-1.6,1.4-3,3-3h48.1c0.6,7.6,6.7,13.6,14.2,14.2v35.4C68.8,68.7,67.5,70.1,65.8,70.1z M70.1,29.3c-7.2,0-13.1-5.9-13.1-13.1 s5.9-13,13.1-13c7.2,0,13,5.9,13,13S77.3,29.3,70.1,29.3z"></path> <path class="publishing_svg-1" d="M71,8.4c-0.1-0.1-0.3-0.2-0.4-0.3C70.4,8,70.2,8,70.1,8c-0.2,0-0.3,0-0.5,0.1c-0.2,0.1-0.3,0.2-0.4,0.3 l-5.5,5.5c-0.5,0.5-0.5,1.3,0,1.8c0.2,0.2,0.6,0.4,0.9,0.4s0.6-0.1,0.9-0.4l3.4-3.4v10.9c0,0.7,0.6,1.2,1.2,1.2s1.2-0.6,1.2-1.2 V12.3l3.4,3.4c0.5,0.5,1.3,0.5,1.8,0c0.5-0.5,0.5-1.3,0-1.8L71,8.4z"></path> <path class="publishing_svg-1" d="M49.4,34.7v-6.2c0-0.4-0.2-0.7-0.4-0.9c-0.3-0.2-0.6-0.3-1-0.3l-21.2,3.3c-0.6,0.1-1.1,0.6-1.1,1.2V38 c0,0,0,0,0,0v12c-0.2-0.1-0.3-0.2-0.5-0.3c-1.4-0.8-3.1-1-4.7-0.6c-3.4,0.8-5.6,4-4.8,7.2c0.4,1.5,1.4,2.8,2.8,3.6 c0.9,0.5,2,0.8,3.1,0.8c0.5,0,1.1-0.1,1.6-0.2c1.6-0.4,3-1.3,3.9-2.7c0.7-1.1,1.1-2.3,1-3.6V39.1l18.7-2.9V47 c-1.4-0.9-3.3-1.3-5.2-0.9c-3.4,0.8-5.6,4-4.8,7.2c0.4,1.5,1.4,2.8,2.8,3.6c0.9,0.5,2,0.8,3.1,0.8c0.5,0,1.1-0.1,1.6-0.2 c1.6-0.4,3-1.3,3.9-2.7c0.8-1.1,1.1-2.4,1-3.7V34.7z M22.6,58.1c-1,0.2-2.1,0.1-2.9-0.3c-0.8-0.4-1.4-1.2-1.6-2 c-0.4-1.8,0.9-3.6,3-4.1c0.3-0.1,0.7-0.1,1-0.1c0.7,0,1.3,0.2,1.9,0.5c0.8,0.4,1.4,1.2,1.6,2c0,0.2,0.1,0.3,0.1,0.5v0.3 c0,0.6-0.2,1.2-0.6,1.7C24.5,57.3,23.7,57.9,22.6,58.1z M28.2,32.9L46.9,30v3.7l-18.7,2.9V32.9z M43.9,55c-1,0.2-2.1,0.1-2.9-0.3 c-0.8-0.4-1.4-1.2-1.6-2c-0.4-1.8,0.9-3.6,3-4.1c0.3-0.1,0.7-0.1,1-0.1c1.7,0,3.1,1,3.5,2.5c0,0.1,0,0.3,0.1,0.4v0.3c0,0,0,0,0,0 c0,0.6-0.2,1.2-0.6,1.7C45.8,54.2,44.9,54.8,43.9,55z"></path> </g></svg> 