<?xml version="1.0" encoding="UTF-8"?> <svg xmlns="http://www.w3.org/2000/svg" xmlns:xlink="http://www.w3.org/1999/xlink" viewBox="0 0 91 103"><defs><style> .showco_svg-1 { fill: none; } .showco_svg-2 { clip-path: url(#clip-path); } .showco_svg-3 { fill: url(#linear-gradient); } .showco_svg-4 { fill: #fff; } </style><clipPath id="clip-path"><polygon class="showco_svg-1" points="89.26 27.92 45.5 0 1.74 29.5 1.74 75.8 45.5 103.66 89.26 75.8 89.26 27.92"></polygon></clipPath><linearGradient id="linear-gradient" x1="1536.45" y1="-767.52" x2="1675.37" y2="-767.52" gradientTransform="translate(-1560.41 819.35)" gradientUnits="userSpaceOnUse"><stop offset="0" stop-color="#ee426e"></stop><stop offset="0.92" stop-color="#f27572"></stop></linearGradient></defs><title>showco2</title><g><g><g class="showco_svg-2"><rect class="showco_svg-3" x="-23.96" y="-17.63" width="138.92" height="138.92" transform="translate(-6.33 97.33) rotate(-90)"></rect></g><path class="showco_svg-4" d="M45.5,103.66a5.55,5.55,0,0,1-2.77-.74l0,0-39.93-25A5.56,5.56,0,0,1,0,73.09V30.83A5.55,5.55,0,0,1,2.75,26l40-25.3a5.54,5.54,0,0,1,5.54,0l0,0L88.25,25.92A5.58,5.58,0,0,1,91,30.71V73.09a5.56,5.56,0,0,1-2.76,4.79l-40,25A5.55,5.55,0,0,1,45.5,103.66Zm-1.72-2.54a3.46,3.46,0,0,0,3.44,0l40-25a3.5,3.5,0,0,0,1.73-3V30.71a3.5,3.5,0,0,0-1.73-3l0,0L47.22,2.53a3.51,3.51,0,0,0-3.44,0l-40,25.3a3.5,3.5,0,0,0-1.73,3V73.09a3.5,3.5,0,0,0,1.73,3l0,0Z"></path></g><path class="showco_svg-4" d="M50.57,47.4l-7-.62c-5.83-.47-6.62-2.94-6.62-5.3,0-5.3,5.42-6.09,8.65-6.09,4.47,0,8,.84,10.73,3l.73.56,5.61-5.61-.9-.73c-3.92-3.22-9.36-4.67-16.08-4.67-10.17,0-17,5.52-17,13.74,0,9.52,7.57,12.15,13.91,12.68l7.14.61c3.1.27,5.82,1.16,5.82,5.34,0,5.77-6.12,6.59-10.05,6.59-5.55,0-9-1.29-12.33-4.24l-.74-.78-6.14,5.72.77.74c4.71,4.53,10.42,6.12,18.53,6.12,11.35,0,18.68-5.61,18.68-14.27C64.31,52.44,59.82,48.26,50.57,47.4Z"></path></g></svg> 