<?xml version="1.0" encoding="UTF-8"?> <svg xmlns="http://www.w3.org/2000/svg" version="1.1" id="sync_svg" viewBox="0 0 64 72" xml:space="preserve"> <style type="text/css">.sync_svg-1 { fill:#EBEBEB; }</style> <g><path class="sync_svg-1" d="M61.4,0.9H9.6C9,0.9,8.4,1.5,8.4,2.2v6.1H2.3c-0.7,0-1.2,0.6-1.2,1.2V70c0,0.7,0.6,1.2,1.2,1.2h51.8 c0.7,0,1.2-0.6,1.2-1.2v-6.1h6.1c0.7,0,1.2-0.6,1.2-1.2V2.2C62.7,1.5,62.1,0.9,61.4,0.9z M52.8,68.7H3.6v-58h35v13 c0,0.7,0.6,1.2,1.2,1.2h13V68.7z M51.1,22.5h-10v-10l5,5L51.1,22.5z M60.2,61.4h-4.8V23.7c0,0,0-0.1,0-0.1c0-0.1,0-0.2-0.1-0.3 c0,0,0-0.1,0-0.1c-0.1-0.1-0.1-0.3-0.2-0.4L40.8,8.6c-0.1-0.1-0.2-0.2-0.4-0.2c0,0-0.1,0-0.1,0c-0.1,0-0.2-0.1-0.3-0.1 c0,0-0.1,0-0.1,0h-29V3.4h49.3V61.4z"></path> <path class="sync_svg-1" d="M38.7,35.3v-4.8c0-0.4-0.2-0.7-0.4-0.9s-0.6-0.3-1-0.3l-16.4,2.6c-0.6,0.1-1.1,0.6-1.1,1.2v4.7c0,0,0,0,0,0 v8.8c-1.1-0.6-2.4-0.8-3.8-0.5c-2.8,0.7-4.5,3.3-3.9,5.9c0.5,2.2,2.6,3.6,4.9,3.6c0.4,0,0.9-0.1,1.3-0.2c2.3-0.5,3.8-2.4,4-4.5 c0,0,0-0.1,0-0.1v-0.2c0-0.1,0-0.2,0-0.2V38.9l13.9-2.2v7.5c-1.1-0.6-2.4-0.8-3.8-0.5c-2.8,0.7-4.5,3.3-3.9,5.9 c0.3,1.3,1.1,2.3,2.3,3c0.8,0.4,1.6,0.6,2.5,0.6c0.4,0,0.9-0.1,1.3-0.2c2.5-0.6,4.1-2.8,4-5.1V35.3z M17.7,53.1 c-1.4,0.3-2.9-0.4-3.2-1.6c-0.3-1.2,0.6-2.5,2.1-2.9c0.2-0.1,0.5-0.1,0.7-0.1c1.2,0,2.2,0.7,2.4,1.7c0,0.1,0,0.2,0,0.3v0.2 C19.7,51.8,18.9,52.8,17.7,53.1z M22.3,34.1l13.9-2.2v2.3l-13.9,2.2V34.1z M34.1,50.7c-0.7,0.2-1.5,0.1-2.1-0.2 c-0.6-0.3-1-0.8-1.1-1.4c-0.3-1.2,0.6-2.5,2.1-2.9c0.2-0.1,0.5-0.1,0.7-0.1c1.2,0,2.2,0.7,2.4,1.7c0,0.1,0,0.2,0,0.3v0.2 c0,0,0,0,0,0C36.2,49.4,35.3,50.4,34.1,50.7z"></path></g></svg> 