<?xml version="1.0" encoding="UTF-8"?> <svg xmlns="http://www.w3.org/2000/svg" xmlns:xlink="http://www.w3.org/1999/xlink" version="1.1" id="youtube_rev_svg" viewBox="0 0 61 55" xml:space="preserve"> <style type="text/css">.youtube_rev_svg-1 { fill:#EBEBEB; }</style> <g><path class="youtube_rev_svg-1" d="M59.2,0.6H2.1c-0.7,0-1.2,0.6-1.2,1.2v51.4c0,0.7,0.6,1.2,1.2,1.2h57.1c0.7,0,1.2-0.6,1.2-1.2V1.9 C60.5,1.2,59.9,0.6,59.2,0.6z M26.7,3.1L16,13.7H4.9L15.6,3.1H26.7z M30.3,3.1h11.1L30.7,13.7H19.6L30.3,3.1z M45,3.1h11.1 L45.4,13.7H34.3L45,3.1z M58,4.8v8.9h-9L58,4.8z M12,3.1l-8.6,8.5V3.1H12z M3.4,52V16.2H58V52H3.4z"></path> <path class="youtube_rev_svg-1" d="M39.9,33.5L27.2,24c-0.4-0.3-0.9-0.3-1.3-0.1c-0.4,0.2-0.7,0.6-0.7,1.1v19c0,0.5,0.3,0.9,0.7,1.1 c0.2,0.1,0.4,0.1,0.6,0.1c0.3,0,0.5-0.1,0.8-0.2l12.7-9.5c0.3-0.2,0.5-0.6,0.5-1S40.2,33.7,39.9,33.5z M27.7,41.5v-14l9.4,7 L27.7,41.5z"></path> </g></svg> 